<?xml version="1.0" encoding="UTF-8" standalone="no"?>
<!-- Generator: Adobe Illustrator 16.0.0, SVG Export Plug-In . SVG Version: 6.00 Build 0)  -->

<svg
   xmlns:dc="http://purl.org/dc/elements/1.1/"
   xmlns:cc="http://creativecommons.org/ns#"
   xmlns:rdf="http://www.w3.org/1999/02/22-rdf-syntax-ns#"
   xmlns:svg="http://www.w3.org/2000/svg"
   xmlns="http://www.w3.org/2000/svg"
   xmlns:sodipodi="http://sodipodi.sourceforge.net/DTD/sodipodi-0.dtd"
   xmlns:inkscape="http://www.inkscape.org/namespaces/inkscape"
   version="1.1"
   id="Capa_1"
   x="0px"
   y="0px"
   width="627.396px"
   height="336.276px"
   viewBox="0 0 627.396 336.276"
   enable-background="new 0 0 627.396 336.276"
   xml:space="preserve"
   inkscape:version="0.91 r13725"
   sodipodi:docname="svg2.svg"><metadata
     id="metadata287"><rdf:RDF><cc:Work
         rdf:about=""><dc:format>image/svg+xml</dc:format><dc:type
           rdf:resource="http://purl.org/dc/dcmitype/StillImage" /><dc:title></dc:title></cc:Work></rdf:RDF></metadata><defs
     id="defs285" /><sodipodi:namedview
     pagecolor="#ffffff"
     bordercolor="#666666"
     borderopacity="1"
     objecttolerance="10"
     gridtolerance="10"
     guidetolerance="10"
     inkscape:pageopacity="0"
     inkscape:pageshadow="2"
     inkscape:window-width="1920"
     inkscape:window-height="1017"
     id="namedview283"
     showgrid="false"
     inkscape:zoom="2.22507"
     inkscape:cx="320.22295"
     inkscape:cy="117.17733"
     inkscape:window-x="-8"
     inkscape:window-y="-8"
     inkscape:window-maximized="1"
     inkscape:current-layer="Capa_1" /><line
     fill="none"
     stroke="#E2E4E7"
     stroke-width="0.7087"
     stroke-linejoin="round"
     stroke-miterlimit="10"
     x1="85.561"
     y1="66.173"
     x2="565.188"
     y2="66.173"
     id="line3" /><g
     id="g5"><rect
       x="85.561"
       y="75.667"
       fill="none"
       width="306.52"
       height="13.551"
       id="rect7" /><text
       transform="matrix(1 0 0 1 85.5605 83.8682)"
       id="text9"><tspan
         x="0"
         y="0"
         font-family="'ITCFranklinGothicStd-BookIt'"
         font-size="11.55"
         id="tspan11">Transacciones de suelo urbano mercado y</tspan><tspan
         x="201.394"
         y="0"
         fill="#9A999E"
         font-family="'ITCFranklinGothicStd-BookIt'"
         font-size="11.55"
         id="tspan13"> Solvia Land Index*</tspan></text>
</g><g
     id="g15"><rect
       x="85.561"
       y="88.218"
       fill="none"
       width="194.185"
       height="16.895"
       id="rect17" /><text
       transform="matrix(1 0 0 1 85.5605 94.1816)"
       fill="#918F94"
       font-family="'ITCFranklinGothicStd-BookIt'"
       font-size="8.4"
       id="text19">(Evolución 2004-2015)</text>
</g><rect
     x="339.655"
     y="102.568"
     fill="none"
     width="77.313"
     height="16.941"
     id="rect21" /><text
     transform="matrix(1 0 0 1 339.6553 107.5078)"
     font-family="'ITCFranklinGothicStd-Book'"
     font-size="7.2"
     id="text23">Nº de transacciones</text>
<g
     id="g25"><rect
       x="445.939"
       y="96.996"
       fill="none"
       width="111.056"
       height="5.846"
       id="rect27" /><text
       transform="matrix(1 0 0 1 445.9404 101.9351)"
       fill="#727176"
       font-family="'ITCFranklinGothicStd-Book'"
       font-size="7.2"
       id="text29">Estimación Solvia</text>
</g><g
     id="g31"><rect
       x="445.939"
       y="106.552"
       fill="none"
       width="96.791"
       height="5.846"
       id="rect33" /><text
       transform="matrix(1 0 0 1 445.9404 111.4912)"
       fill="#0081C6"
       font-family="'ITCFranklinGothicStd-Book'"
       font-size="7.2"
       id="text35">Datos Ministerio de Fomento</text>
</g><g
     id="g37"><rect
       x="445.939"
       y="86.957"
       fill="none"
       width="86.791"
       height="5.846"
       id="rect39" /><text
       transform="matrix(1 0 0 1 445.9404 91.895)"
       font-family="'ITCFranklinGothicStd-Book'"
       font-size="7.2"
       id="text41">% Variación interanual</text>
</g><rect
     x="325.75"
     y="101.214"
     fill="#E4E6E9"
     width="8.964"
     height="8.963"
     id="rect43" /><line
     fill="none"
     stroke="#0081C6"
     stroke-width="1.5"
     stroke-miterlimit="10"
     x1="439.079"
     y1="109.474"
     x2="427.354"
     y2="109.474"
     id="line45" /><line
     fill="none"
     stroke="#727176"
     stroke-width="1.5"
     stroke-miterlimit="10"
     x1="439.079"
     y1="99.917"
     x2="427.354"
     y2="99.917"
     id="line47" /><g
     id="g49"><rect
       x="88.104"
       y="257.212"
       fill="none"
       width="413.683"
       height="12.891"
       id="rect51" /><text
       transform="matrix(1 0 0 1 88.1045 262.7007)"
       fill="#727176"
       font-family="'ITCFranklinGothicStd-Book'"
       font-size="8"
       id="text53">*Ajuste de las transacciones eliminando el efecto de las compras de las EEFF entre 2012-2015.</text>
</g><rect
     x="120.025"
     y="236.582"
     fill="none"
     width="26.617"
     height="5.074"
     id="rect55" /><text
     transform="matrix(1 0 0 1 125.6553 240.9692)"
     font-family="'ITCFranklinGothicStd-Book'"
     font-size="6.3981"
     id="text57">2004</text>
<rect
     x="153.85"
     y="236.582"
     fill="none"
     width="26.617"
     height="5.074"
     id="rect59" /><text
     transform="matrix(1 0 0 1 159.4795 240.9692)"
     font-family="'ITCFranklinGothicStd-Book'"
     font-size="6.3981"
     id="text61">2005</text>
<rect
     x="187.67"
     y="236.582"
     fill="none"
     width="26.62"
     height="5.074"
     id="rect63" /><text
     transform="matrix(1 0 0 1 193.3018 240.9692)"
     font-family="'ITCFranklinGothicStd-Book'"
     font-size="6.3981"
     id="text65">2006</text>
<rect
     x="221.494"
     y="236.582"
     fill="none"
     width="26.619"
     height="5.074"
     id="rect67" /><text
     transform="matrix(1 0 0 1 227.126 240.9692)"
     font-family="'ITCFranklinGothicStd-Book'"
     font-size="6.3981"
     id="text69">2007</text>
<rect
     x="255.32"
     y="236.582"
     fill="none"
     width="26.618"
     height="5.074"
     id="rect71" /><text
     transform="matrix(1 0 0 1 260.9512 240.9692)"
     font-family="'ITCFranklinGothicStd-Book'"
     font-size="6.3981"
     id="text73">2008</text>
<rect
     x="289.14"
     y="236.582"
     fill="none"
     width="26.621"
     height="5.074"
     id="rect75" /><text
     transform="matrix(1 0 0 1 294.7715 240.9692)"
     font-family="'ITCFranklinGothicStd-Book'"
     font-size="6.3981"
     id="text77">2009</text>
<rect
     x="322.967"
     y="236.582"
     fill="none"
     width="26.62"
     height="5.074"
     id="rect79" /><text
     transform="matrix(1 0 0 1 328.5986 240.9692)"
     font-family="'ITCFranklinGothicStd-Book'"
     font-size="6.3981"
     id="text81">2010</text>
<rect
     x="356.789"
     y="236.582"
     fill="none"
     width="26.617"
     height="5.074"
     id="rect83" /><text
     transform="matrix(1 0 0 1 362.4199 240.9692)"
     font-family="'ITCFranklinGothicStd-Book'"
     font-size="6.3981"
     id="text85">2011</text>
<rect
     x="390.614"
     y="236.582"
     fill="none"
     width="26.619"
     height="5.074"
     id="rect87" /><text
     transform="matrix(1 0 0 1 396.2461 240.9692)"
     font-family="'ITCFranklinGothicStd-Book'"
     font-size="6.3981"
     id="text89">2012</text>
<rect
     x="424.438"
     y="236.582"
     fill="none"
     width="26.619"
     height="5.074"
     id="rect91" /><text
     transform="matrix(1 0 0 1 430.0693 240.9692)"
     font-family="'ITCFranklinGothicStd-Book'"
     font-size="6.3981"
     id="text93">2013</text>
<rect
     x="458.262"
     y="236.582"
     fill="none"
     width="26.617"
     height="5.074"
     id="rect95" /><text
     transform="matrix(1 0 0 1 463.8916 240.9692)"
     font-family="'ITCFranklinGothicStd-Book'"
     font-size="6.3981"
     id="text97">2014</text>
<rect
     x="492.086"
     y="236.582"
     fill="none"
     width="26.617"
     height="5.074"
     id="rect99" /><text
     transform="matrix(1 0 0 1 497.7168 240.9692)"
     font-family="'ITCFranklinGothicStd-Book'"
     font-size="6.3981"
     id="text101">2015</text>
<g
     id="g3615"
     stagger="2"
     direction="up"
     delay="0.5"
     time="2"><rect
       id="rect103"
       height="69.508003"
       width="9.0830002"
       y="162.375"
       x="129.875"
       style="fill:#e4e6e9" /><rect
       id="rect105"
       height="60.125"
       width="9.0810003"
       y="171.757"
       x="163.608"
       style="fill:#e4e6e9" /><rect
       id="rect107"
       height="46.658001"
       width="9.0819998"
       y="185.224"
       x="197.341"
       style="fill:#e4e6e9" /><rect
       id="rect109"
       height="37.102001"
       width="9.0810003"
       y="194.78101"
       x="231.07201"
       style="fill:#e4e6e9" /><rect
       id="rect111"
       height="25.283001"
       width="9.0839996"
       y="206.599"
       x="264.80499"
       style="fill:#e4e6e9" /><rect
       id="rect113"
       height="18.073999"
       width="9.0819998"
       y="213.808"
       x="298.53699"
       style="fill:#e4e6e9" /><rect
       id="rect115"
       height="17.031"
       width="9.0799999"
       y="214.851"
       x="332.271"
       style="fill:#e4e6e9" /><rect
       id="rect117"
       height="13.555"
       width="9.0830002"
       y="218.328"
       x="366.00201"
       style="fill:#e4e6e9" /><rect
       id="rect119"
       height="11.904"
       width="9.0810003"
       y="219.978"
       x="399.73499"
       style="fill:#e4e6e9" /><rect
       id="rect121"
       height="11.73"
       width="9.0790005"
       y="220.15199"
       x="433.46899"
       style="fill:#e4e6e9" /><rect
       id="rect123"
       height="12.686"
       width="9.0839996"
       y="219.19701"
       x="467.198"
       style="fill:#e4e6e9" /><rect
       id="rect125"
       height="12.572"
       width="9.0830002"
       y="219.31"
       x="500.93201"
       style="fill:#0081c6" /></g><g
     id="g127"><rect
       x="149.371"
       y="189.05"
       fill="none"
       width="37.404"
       height="5.449"
       id="rect129" /><text
       transform="matrix(1 0 0 1 158.4111 193.4399)"
       fill="#8FBEE2"
       font-family="'ITCFranklinGothicStd-Book'"
       font-size="6.3981"
       id="text131">-13,1%</text>
</g><rect
     x="115.621"
     y="156.195"
     fill="none"
     width="37.404"
     height="4.887"
     id="rect133" /><text
     transform="matrix(1 0 0 1 123.7656 160.5845)"
     fill="#98979C"
     font-family="'ITCFranklinGothicStd-Book'"
     font-size="6.3981"
     id="text135">86.898</text>
<rect
     x="149.995"
     y="165.531"
     fill="none"
     width="37.405"
     height="5.074"
     id="rect137" /><text
     transform="matrix(1 0 0 1 158.1406 169.9185)"
     fill="#98979C"
     font-family="'ITCFranklinGothicStd-Book'"
     font-size="6.3981"
     id="text139">75.538</text>
<rect
     x="183.359"
     y="179.123"
     fill="none"
     width="37.405"
     height="5.264"
     id="rect141" /><text
     transform="matrix(1 0 0 1 191.5039 183.5103)"
     fill="#98979C"
     font-family="'ITCFranklinGothicStd-Book'"
     font-size="6.3981"
     id="text143">58.478</text>
<rect
     x="217.399"
     y="188.822"
     fill="none"
     width="37.404"
     height="4.699"
     id="rect145" /><text
     transform="matrix(1 0 0 1 225.5439 193.2095)"
     fill="#98979C"
     font-family="'ITCFranklinGothicStd-Book'"
     font-size="6.3981"
     id="text147">46.437</text>
<rect
     x="251.583"
     y="199.88"
     fill="none"
     width="37.404"
     height="4.885"
     id="rect149" /><text
     transform="matrix(1 0 0 1 259.7275 204.2681)"
     fill="#98979C"
     font-family="'ITCFranklinGothicStd-Book'"
     font-size="6.3981"
     id="text151">31.479</text>
<rect
     x="284.61"
     y="207.078"
     fill="none"
     width="37.404"
     height="5.074"
     id="rect153" /><text
     transform="matrix(1 0 0 1 292.7549 211.4673)"
     fill="#98979C"
     font-family="'ITCFranklinGothicStd-Book'"
     font-size="6.3981"
     id="text155">22.656</text>
<rect
     x="318.31"
     y="208.316"
     fill="none"
     width="37.404"
     height="4.51"
     id="rect157" /><text
     transform="matrix(1 0 0 1 326.4541 212.7036)"
     fill="#98979C"
     font-family="'ITCFranklinGothicStd-Book'"
     font-size="6.3981"
     id="text159">21.220</text>
<rect
     x="352.106"
     y="212.38"
     fill="none"
     width="37.404"
     height="5.262"
     id="rect161" /><text
     transform="matrix(1 0 0 1 360.251 216.7681)"
     fill="#98979C"
     font-family="'ITCFranklinGothicStd-Book'"
     font-size="6.3981"
     id="text163">16.796</text>
<rect
     x="385.565"
     y="213.328"
     fill="none"
     width="37.406"
     height="4.887"
     id="rect165" /><text
     transform="matrix(1 0 0 1 393.7119 217.7173)"
     fill="#98979C"
     font-family="'ITCFranklinGothicStd-Book'"
     font-size="6.3981"
     id="text167">14.908</text>
<rect
     x="419.602"
     y="213.828"
     fill="none"
     width="37.406"
     height="4.699"
     id="rect169" /><text
     transform="matrix(1 0 0 1 427.748 218.2153)"
     fill="#98979C"
     font-family="'ITCFranklinGothicStd-Book'"
     font-size="6.3981"
     id="text171">14.555</text>
<rect
     x="453.546"
     y="212.931"
     fill="none"
     width="37.405"
     height="4.883"
     id="rect173" /><text
     transform="matrix(1 0 0 1 461.6904 217.3188)"
     fill="#98979C"
     font-family="'ITCFranklinGothicStd-Book'"
     font-size="6.3981"
     id="text175">15.899</text>
<g
     id="g177"><rect
       x="486.477"
       y="213.103"
       fill="none"
       width="37.405"
       height="5.072"
       id="rect179" /><text
       transform="matrix(1 0 0 1 494.6211 217.4907)"
       fill="#0081C6"
       font-family="'ITCFranklinGothicStd-Demi'"
       font-size="6.3981"
       id="text181">15.718</text>
</g><g
     id="g183"><rect
       x="184.42"
       y="202.115"
       fill="none"
       width="35.382"
       height="5.262"
       id="rect185" /><text
       transform="matrix(1 0 0 1 192.4492 206.5024)"
       fill="#8FBEE2"
       font-family="'ITCFranklinGothicStd-Book'"
       font-size="6.3981"
       id="text187">-22,6%</text>
</g><g
     id="g189"><rect
       x="216.531"
       y="202.302"
       fill="none"
       width="36.729"
       height="4.887"
       id="rect191" /><text
       transform="matrix(1 0 0 1 225.2344 206.6899)"
       fill="#8FBEE2"
       font-family="'ITCFranklinGothicStd-Book'"
       font-size="6.3981"
       id="text193">-20,6%</text>
</g><g
     id="g195"><rect
       x="252.589"
       y="216.796"
       fill="none"
       width="36.73"
       height="4.887"
       id="rect197" /><text
       transform="matrix(1 0 0 1 261.293 221.1841)"
       fill="#8FBEE2"
       font-family="'ITCFranklinGothicStd-Book'"
       font-size="6.3981"
       id="text199">-32,2%</text>
</g><g
     id="g201"><rect
       x="283.933"
       y="224.833"
       fill="none"
       width="35.382"
       height="4.885"
       id="rect203" /><text
       transform="matrix(1 0 0 1 291.9619 229.2231)"
       fill="#8FBEE2"
       font-family="'ITCFranklinGothicStd-Book'"
       font-size="6.3981"
       id="text205">-28,0%</text>
</g><g
     id="g207"><rect
       x="323.268"
       y="179.369"
       fill="none"
       width="26.618"
       height="4.699"
       id="rect209" /><text
       transform="matrix(1 0 0 1 331.7139 183.7563)"
       fill="#8FBEE2"
       font-family="'ITCFranklinGothicStd-Book'"
       font-size="6.3981"
       id="text211">-6%</text>
</g><g
     id="g213"><rect
       x="353.359"
       y="196.189"
       fill="none"
       width="36.729"
       height="5.074"
       id="rect215" /><text
       transform="matrix(1 0 0 1 362.0625 200.5767)"
       fill="#8FBEE2"
       font-family="'ITCFranklinGothicStd-Book'"
       font-size="6.3981"
       id="text217">-20,8%</text>
</g><g
     id="g219"><rect
       x="384.864"
       y="184.291"
       fill="none"
       width="38.751"
       height="4.885"
       id="rect221" /><text
       transform="matrix(1 0 0 1 394.5781 188.6782)"
       fill="#8FBEE2"
       font-family="'ITCFranklinGothicStd-Book'"
       font-size="6.3981"
       id="text223">-11,2%</text>
</g><g
     id="g225"><rect
       x="425.817"
       y="184.478"
       fill="none"
       width="26.621"
       height="4.51"
       id="rect227" /><text
       transform="matrix(1 0 0 1 431.3857 188.8657)"
       fill="#8FBEE2"
       font-family="'ITCFranklinGothicStd-Book'"
       font-size="6.3981"
       id="text229">-2,4%</text>
</g><g
     id="g231"><rect
       x="459.884"
       y="154.146"
       fill="none"
       width="26.619"
       height="5.076"
       id="rect233" /><text
       transform="matrix(1 0 0 1 466.1543 158.5356)"
       fill="#8FBEE2"
       font-family="'ITCFranklinGothicStd-Book'"
       font-size="6.3981"
       id="text235">9,2%</text>
</g><g
     id="g237"><rect
       x="506.192"
       y="171.185"
       fill="none"
       width="26.621"
       height="7.133"
       id="rect239" /><text
       transform="matrix(1 0 0 1 508.7695 177.2212)"
       fill="#0081C6"
       font-family="'ITCFranklinGothicStd-Demi'"
       font-size="8.7974"
       id="text241">-1,1%</text>
</g><polyline
     fill="none"
     stroke="#0081C6"
     stroke-width="1.2834"
     stroke-miterlimit="10"
     points="167.104,196.693 201.48,211.984   235.854,208.857 269.549,227.365 303.256,220.673 336.62,186.091 370.996,209.464 404.021,193.912 438.396,179.925 472.436,161.417   505.798,175.232 "
     id="polyline243" /><polyline
     fill="none"
     stroke="#727176"
     stroke-width="1.1996"
     stroke-miterlimit="10"
     points="404.059,182.277 438.161,167.529   471.277,142.132 505.042,123.847 "
     id="polyline245" /><rect
     x="386.073"
     y="201.349"
     fill="none"
     width="35.067"
     height="7.061"
     id="rect247" /><text
     transform="matrix(1 0 0 1 394.9688 205.7388)"
     fill="#727176"
     font-family="'ITCFranklinGothicStd-Demi'"
     font-size="6.3981"
     id="text249">7.801</text>
<rect
     x="421.058"
     y="201.349"
     fill="none"
     width="35.067"
     height="8.123"
     id="rect251" /><text
     transform="matrix(1 0 0 1 429.9531 205.7388)"
     fill="#727176"
     font-family="'ITCFranklinGothicStd-Demi'"
     font-size="6.3981"
     id="text253">8.254</text>
<rect
     x="453.964"
     y="201.349"
     fill="none"
     width="35.067"
     height="6.051"
     id="rect255" /><text
     transform="matrix(1 0 0 1 460.9395 205.7388)"
     fill="#727176"
     font-family="'ITCFranklinGothicStd-Demi'"
     font-size="6.3981"
     id="text257">10.254</text>
<rect
     x="487.973"
     y="201.349"
     fill="none"
     width="35.067"
     height="6.051"
     id="rect259" /><text
     transform="matrix(1 0 0 1 494.9492 205.7388)"
     fill="#727176"
     font-family="'ITCFranklinGothicStd-Demi'"
     font-size="6.3981"
     id="text261">14.067</text>
<g
     id="g263"><rect
       x="425.267"
       y="154.945"
       fill="none"
       width="24.955"
       height="6.518"
       id="rect265" /><text
       transform="matrix(1 0 0 1 428.7861 159.3345)"
       fill="#727176"
       font-family="'ITCFranklinGothicStd-Demi'"
       font-size="6.3981"
       id="text267">+5,8%</text>
</g><g
     id="g269"><rect
       x="459.232"
       y="129.841"
       fill="none"
       width="24.955"
       height="6.516"
       id="rect271" /><text
       transform="matrix(1 0 0 1 460.832 134.229)"
       fill="#727176"
       font-family="'ITCFranklinGothicStd-Demi'"
       font-size="6.3981"
       id="text273">+24,2%</text>
</g><g
     id="g275"><rect
       x="502.169"
       y="120.339"
       fill="none"
       width="38.285"
       height="10.301"
       id="rect277" /><text
       transform="matrix(1 0 0 1 507.6748 126.3735)"
       fill="#727176"
       font-family="'ITCFranklinGothicStd-Demi'"
       font-size="8.7974"
       id="text279">+37%*</text>
</g><line
     fill="none"
     stroke="#727176"
     stroke-width="0.5668"
     stroke-linecap="round"
     stroke-miterlimit="10"
     stroke-dasharray="0,1.5995"
     x1="404.269"
     y1="131.441"
     x2="404.269"
     y2="180.333"
     id="line281" /></svg>